<svg xmlns="http://www.w3.org/2000/svg" viewBox="0 0 512 512">
  <rect width="512" height="512" rx="112" fill="#ffffff"/>
  <!-- L plate -->
  <g transform="rotate(9 310 185)">
    <rect x="243" y="118" width="134" height="134" rx="20" fill="#e2201f"/>
    <path d="M282 148 h30 v76 h56 v26 h-86 z" fill="#ffffff"/>
  </g>
  <!-- car body -->
  <path fill="#1c4ba0" d="M54 360
    C 86 326 138 312 208 310
    C 288 308 332 304 394 288
    C 432 278 456 264 474 242
    C 470 276 446 302 402 318
    C 368 332 328 340 290 344
    L 136 344
    C 106 346 88 356 80 378
    C 68 376 56 368 54 360 Z"/>
  <!-- cabin -->
  <path d="M150 330 Q 252 226 400 326" fill="none" stroke="#1c4ba0" stroke-width="26" stroke-linecap="round"/>
  <path d="M258 268 L 251 326" stroke="#1c4ba0" stroke-width="13" stroke-linecap="round"/>
  <!-- wheel arch gaps -->
  <circle cx="172" cy="384" r="52" fill="#ffffff"/>
  <circle cx="356" cy="384" r="52" fill="#ffffff"/>
  <!-- wheels -->
  <circle cx="172" cy="384" r="38" fill="none" stroke="#17233f" stroke-width="24"/>
  <circle cx="356" cy="384" r="38" fill="none" stroke="#17233f" stroke-width="24"/>
</svg>
