<svg xmlns="http://www.w3.org/2000/svg" viewBox="0 0 32 32">
  <rect width="32" height="32" rx="7" fill="#20262b"/>
  <g transform="translate(4,4)">
    <path d="M3 12L5.5 6.5C5.81 5.81 6.5 5.36 7.26 5.36H16.74C17.5 5.36 18.19 5.81 18.5 6.5L21 12" stroke="#f7f3ea" stroke-width="2" stroke-linecap="round" stroke-linejoin="round" fill="none"/>
    <path d="M3 12V16.5C3 17.05 3.45 17.5 4 17.5H5.5C6.05 17.5 6.5 17.05 6.5 16.5V15" stroke="#d98a2b" stroke-width="2" stroke-linecap="round" stroke-linejoin="round" fill="none"/>
    <path d="M21 12V16.5C21 17.05 20.55 17.5 20 17.5H18.5C17.95 17.5 17.5 17.05 17.5 16.5V15" stroke="#d98a2b" stroke-width="2" stroke-linecap="round" stroke-linejoin="round" fill="none"/>
    <path d="M3 12H21" stroke="#f7f3ea" stroke-width="2" stroke-linecap="round" fill="none"/>
    <circle cx="7" cy="15" r="1.8" fill="#f7f3ea"/>
    <circle cx="17" cy="15" r="1.8" fill="#f7f3ea"/>
  </g>
</svg>
